# xmcd
# 
# Track frame offsets:
#	150
#	35617
#	53794
#	70548
#	97953
#	138147
#	151684
#	166428
#	183061
#	195609
#	209952
#	224849
#	238455
#	249879
#	260431
#	281084
#	324195
#
# Disc length: 4794 seconds
#
# Revision: 1
# Processed by: cddbd v1.5.1PL0 Copyright (c) Steve Scherf et al.
# Submitted via: Audio-CD-Archiv 3.00.487
#
DISCID=f712b811
DTITLE=Curtis Mayfield - Curts (Deluxe Edition)
DYEAR=1900
DGENRE=blues
TTITLE0=If's there's a hell below we're all going to go
TTITLE1=The other side of town
TTITLE2=The makings of you
TTITLE3=We the people who are darker than blue
TTITLE4=Move on up
TTITLE5=Miss Black America
TTITLE6=Wild and free
TTITLE7=Give it up
TTITLE8=Power to the people (Demo)
TTITLE9=Underground (Demo)
TTITLE10=Ghetto child (Demo)
TTITLE11=Readings in astrology (Demo)
TTITLE12=Suffer (Demo)
TTITLE13=Miss Black America (Demo)
TTITLE14=The makings of you (Demo)
TTITLE15=If's there's a hell below we're all going to go (Takes 1 and 2)
TTITLE16=If's there's a hell below we're all going to go (Edit single version)
EXTD=
EXTT0=
EXTT1=
EXTT2=
EXTT3=
EXTT4=
EXTT5=
EXTT6=
EXTT7=
EXTT8=
EXTT9=
EXTT10=
EXTT11=
EXTT12=
EXTT13=
EXTT14=
EXTT15=
EXTT16=
PLAYORDER=
